<?xml version="1.0" standalone="no"?><!DOCTYPE svg PUBLIC "-//W3C//DTD SVG 1.1//EN" "http://www.w3.org/Graphics/SVG/1.1/DTD/svg11.dtd"><svg t="1722248834466" class="icon" viewBox="0 0 1024 1024" version="1.1" xmlns="http://www.w3.org/2000/svg" p-id="9399" xmlns:xlink="http://www.w3.org/1999/xlink" width="200" height="200"><path d="M673.052444 113.777778c68.437333 0 123.847111 52.508444 123.847112 117.191111v189.610667a31.687111 31.687111 0 0 1-63.374223 0V230.968889c0-31.800889-27.079111-57.457778-60.472889-57.457778h-435.2c-33.336889 0-60.472889 25.656889-60.472888 57.457778l-0.227556 562.062222c0 31.800889 27.136 57.457778 60.472889 57.457778h231.537778a29.866667 29.866667 0 1 1 0 59.733333h-231.537778C169.187556 910.222222 113.777778 857.713778 113.777778 793.031111l0.227555-562.062222C114.005333 166.286222 169.528889 113.777778 237.909333 113.777778h435.2z m102.570667 386.389333l50.176 102.570667 112.184889 16.497778c20.309333 2.901333 29.354667 26.168889 18.204444 41.984l-3.242666 3.754666-81.351111 79.928889 19.285333 112.867556a26.908444 26.908444 0 0 1-34.872889 30.151111l-4.266667-1.877334-100.238222-53.191111-100.238222 53.191111a26.908444 26.908444 0 0 1-39.537778-23.608888l0.398222-4.664889 19.171556-112.924445-81.237333-79.872a26.908444 26.908444 0 0 1 10.069333-44.657778l4.835556-1.137777 112.184888-16.440889 50.176-102.570667a26.908444 26.908444 0 0 1 48.355556 0z m-24.120889 72.931556l-32.256 65.991111a26.908444 26.908444 0 0 1-20.309333 14.791111l-72.647111 10.638222 52.736 51.882667a26.908444 26.908444 0 0 1 8.078222 18.432l-0.398222 5.233778-12.401778 72.817777 64.568889-34.190222c6.314667-3.356444 13.653333-3.982222 20.309333-1.991111l4.892445 1.991111 64.568889 34.190222-12.344889-72.817777a26.908444 26.908444 0 0 1 4.266666-19.683556l3.413334-3.982222 52.679111-51.882667-72.647111-10.581333a26.908444 26.908444 0 0 1-17.464889-10.353778l-2.787556-4.437333-32.256-66.048zM540.330667 455.111111a28.444444 28.444444 0 0 1 0.227555 56.888889l-286.094222 1.365333a28.444444 28.444444 0 0 1-0.227556-56.888889L540.330667 455.111111z m81.578666-227.555555a56.888889 56.888889 0 0 1 56.888889 56.888888v56.888889a56.888889 56.888889 0 0 1-56.888889 56.888889H284.444444a56.888889 56.888889 0 0 1-56.888888-56.888889V284.444444a56.888889 56.888889 0 0 1 56.888888-56.888888h337.464889z m0 56.888888H284.444444v56.888889h337.464889V284.444444z" p-id="9400"></path></svg>